<mxfile host="Electron" agent="Mozilla/5.0 (Macintosh; Intel Mac OS X 10_15_7) AppleWebKit/537.36 (KHTML, like Gecko) draw.io/26.0.9 Chrome/128.0.6613.186 Electron/32.2.5 Safari/537.36" version="26.0.9">
  <diagram name="Page-1" id="QYzTqM6quGFddyWdLWOI">
    <mxGraphModel dx="615" dy="466" grid="1" gridSize="10" guides="1" tooltips="1" connect="1" arrows="1" fold="1" page="1" pageScale="1" pageWidth="850" pageHeight="1100" math="0" shadow="0">
      <root>
        <mxCell id="0" />
        <mxCell id="1" parent="0" />
        <mxCell id="IF50Cef1mk1ZscaeDlUT-1" value=".db" style="shape=datastore;whiteSpace=wrap;html=1;fillColor=#dae8fc;strokeColor=#6c8ebf;" vertex="1" parent="1">
          <mxGeometry x="560" y="320" width="60" height="60" as="geometry" />
        </mxCell>
        <mxCell id="IF50Cef1mk1ZscaeDlUT-2" value="" style="rounded=1;whiteSpace=wrap;html=1;fillColor=#fff2cc;strokeColor=#d6b656;" vertex="1" parent="1">
          <mxGeometry x="360" y="200" width="160" height="220" as="geometry" />
        </mxCell>
        <mxCell id="IF50Cef1mk1ZscaeDlUT-3" value="" style="rounded=1;whiteSpace=wrap;html=1;fillColor=#d5e8d4;strokeColor=#82b366;" vertex="1" parent="1">
          <mxGeometry x="160" y="200" width="160" height="220" as="geometry" />
        </mxCell>
        <mxCell id="IF50Cef1mk1ZscaeDlUT-4" value="PyWebView" style="rounded=1;whiteSpace=wrap;html=1;fillColor=#fff2cc;strokeColor=#d6b656;" vertex="1" parent="1">
          <mxGeometry x="380" y="240" width="120" height="60" as="geometry" />
        </mxCell>
        <mxCell id="IF50Cef1mk1ZscaeDlUT-21" style="edgeStyle=orthogonalEdgeStyle;rounded=0;orthogonalLoop=1;jettySize=auto;html=1;exitX=0.5;exitY=0;exitDx=0;exitDy=0;entryX=0.5;entryY=1;entryDx=0;entryDy=0;" edge="1" parent="1" source="IF50Cef1mk1ZscaeDlUT-5" target="IF50Cef1mk1ZscaeDlUT-4">
          <mxGeometry relative="1" as="geometry" />
        </mxCell>
        <mxCell id="IF50Cef1mk1ZscaeDlUT-5" value="SqlLite" style="rounded=1;whiteSpace=wrap;html=1;fillColor=#fff2cc;strokeColor=#d6b656;" vertex="1" parent="1">
          <mxGeometry x="380" y="320" width="120" height="60" as="geometry" />
        </mxCell>
        <mxCell id="IF50Cef1mk1ZscaeDlUT-10" value="" style="endArrow=classic;startArrow=classic;html=1;rounded=0;" edge="1" parent="1" source="IF50Cef1mk1ZscaeDlUT-16">
          <mxGeometry width="50" height="50" relative="1" as="geometry">
            <mxPoint x="330" y="320" as="sourcePoint" />
            <mxPoint x="380" y="270" as="targetPoint" />
          </mxGeometry>
        </mxCell>
        <mxCell id="IF50Cef1mk1ZscaeDlUT-11" value="" style="endArrow=classic;startArrow=classic;html=1;rounded=0;exitX=1.013;exitY=0.318;exitDx=0;exitDy=0;exitPerimeter=0;" edge="1" parent="1">
          <mxGeometry width="50" height="50" relative="1" as="geometry">
            <mxPoint x="500" y="349.5" as="sourcePoint" />
            <mxPoint x="558" y="349.5" as="targetPoint" />
          </mxGeometry>
        </mxCell>
        <mxCell id="IF50Cef1mk1ZscaeDlUT-12" value="Backend" style="text;html=1;align=center;verticalAlign=middle;whiteSpace=wrap;rounded=0;" vertex="1" parent="1">
          <mxGeometry x="410" y="160" width="60" height="30" as="geometry" />
        </mxCell>
        <mxCell id="IF50Cef1mk1ZscaeDlUT-13" value="Frontend" style="text;html=1;align=center;verticalAlign=middle;whiteSpace=wrap;rounded=0;" vertex="1" parent="1">
          <mxGeometry x="210" y="160" width="60" height="30" as="geometry" />
        </mxCell>
        <mxCell id="IF50Cef1mk1ZscaeDlUT-14" value="Python" style="text;html=1;align=center;verticalAlign=middle;whiteSpace=wrap;rounded=0;" vertex="1" parent="1">
          <mxGeometry x="410" y="200" width="60" height="30" as="geometry" />
        </mxCell>
        <mxCell id="IF50Cef1mk1ZscaeDlUT-23" style="edgeStyle=orthogonalEdgeStyle;rounded=0;orthogonalLoop=1;jettySize=auto;html=1;exitX=0.25;exitY=1;exitDx=0;exitDy=0;entryX=0.25;entryY=0;entryDx=0;entryDy=0;" edge="1" parent="1" source="IF50Cef1mk1ZscaeDlUT-16" target="IF50Cef1mk1ZscaeDlUT-18">
          <mxGeometry relative="1" as="geometry" />
        </mxCell>
        <mxCell id="IF50Cef1mk1ZscaeDlUT-16" value="JavaScript" style="rounded=1;whiteSpace=wrap;html=1;fillColor=#d5e8d4;strokeColor=#82b366;" vertex="1" parent="1">
          <mxGeometry x="180" y="240" width="120" height="60" as="geometry" />
        </mxCell>
        <mxCell id="IF50Cef1mk1ZscaeDlUT-24" style="edgeStyle=orthogonalEdgeStyle;rounded=0;orthogonalLoop=1;jettySize=auto;html=1;exitX=0.75;exitY=0;exitDx=0;exitDy=0;entryX=0.75;entryY=1;entryDx=0;entryDy=0;" edge="1" parent="1" source="IF50Cef1mk1ZscaeDlUT-18" target="IF50Cef1mk1ZscaeDlUT-16">
          <mxGeometry relative="1" as="geometry" />
        </mxCell>
        <mxCell id="IF50Cef1mk1ZscaeDlUT-18" value="HTML/CSS" style="rounded=1;whiteSpace=wrap;html=1;fillColor=#d5e8d4;strokeColor=#82b366;" vertex="1" parent="1">
          <mxGeometry x="180" y="320" width="120" height="60" as="geometry" />
        </mxCell>
      </root>
    </mxGraphModel>
  </diagram>
</mxfile>
